<svg xmlns="http://www.w3.org/2000/svg" width="44.002" height="44" viewBox="0 0 11.642 11.642" id="robot">
  <path d="m 389.1543,256 c -3.3466,0 -6.21945,2.07451 -7.41016,5.00195 h -10.29102 c -0.91646,-1.2064 -2.35233,-2 -3.9746,-2 -2.74958,0 -4.99805,2.24652 -4.99805,4.9961 0,1.62228 0.79359,3.05814 2,3.97461 v 8.02929 h -5.00391 c -1.6447,0 -2.99804,1.35139 -2.99804,2.9961 v 15 h -0.9961 c -1.6447,0 -3.0039,1.36115 -3.0039,3.00586 0,1.6447 1.3592,2.99609 3.0039,2.99609 h 23.99805 c 1.6447,0 2.99805,-1.35139 2.99805,-2.99609 0,-1.64471 -1.35335,-3.00586 -2.99805,-3.00586 h -1.00391 v -15 c 0,-1.6447 -1.35138,-2.9961 -2.99609,-2.9961 h -4.99805 v -8.0332 c 0.36475,-0.27735 0.68942,-0.60012 0.9668,-0.96484 h 10.29687 c 1.19213,2.92443 4.06378,4.99609 7.40821,4.99609 3.08757,-1.5e-4 5.90526,-1.78262 7.22851,-4.57227 0.31408,-0.66356 -0.17005,-1.4279 -0.90429,-1.42773 h -7 c -0.57132,0 -1,-0.4287 -1,-1 v -2 c 0,-0.5713 0.42872,-1 1,-1 h 7 c 0.56315,1.5e-4 1.01534,-0.46443 1,-1.02734 -0.004,-0.13867 -0.0379,-0.275 -0.0957,-0.40039 -1.32325,-2.78965 -4.14094,-4.57212 -7.22851,-4.57227 z m 0,2 c 1.65736,8e-5 3.35685,0.84716 4.46875,2 h -4.80664 c -1.64474,0 -3.33789,1.3553 -3.33789,3 v 2 c 0,1.64471 1.3553,3 3,3 h 5.14453 c -1.1119,1.15284 -2.81139,1.99992 -4.46875,2 -3.32557,0 -6,-2.67445 -6,-6 0,-3.32555 2.67443,-6 6,-6 z m -21.67578,3.00195 c 1.66869,0 3.0039,1.3274 3.0039,2.9961 0,1.6687 -1.33521,3.00586 -3.0039,3.00586 -1.6687,0 -2.99805,-1.33716 -2.99805,-3.00586 0,-1.6687 1.32935,-2.9961 2.99805,-2.9961 z m 4.90429,2 h 8.8418 c -0.0411,0.32762 -0.0703,0.65958 -0.0703,0.99805 0,0.33989 0.0308,0.67301 0.0723,1.00195 h -8.8457 c 0.0668,-0.32423 0.10156,-0.66087 0.10156,-1.0039 0,-0.34095 -0.0336,-0.6739 -0.0996,-0.9961 z m -5.90234,5.89844 c 0.32286,0.0663 0.65634,0.10352 0.99805,0.10352 0.34369,0 0.67909,-0.0365 1.0039,-0.10352 v 7.10156 h -2.00195 z m -7.00391,9.10156 h 16.00391 c 0.5713,0 0.99609,0.4248 0.99609,0.9961 v 15 h -17.99804 v -15 c 0,-0.57129 0.42675,-0.9961 0.99804,-0.9961 z m 7.93555,2 c -2.75568,0 -5.26395,1.12333 -7.07227,2.93164 l 1.41016,1.41016 c 1.44904,-1.44904 3.44723,-2.33984 5.66211,-2.33984 2.21488,0 4.20526,0.8908 5.6543,2.33984 l 1.41015,-1.41016 c -1.80831,-1.80831 -4.30877,-2.93164 -7.06445,-2.93164 z m 0,4.00196 c -1.59083,2.4e-4 -3.12133,0.63085 -4.24609,1.75586 l 1.41796,1.41015 c 0.75029,-0.75045 1.76694,-1.17367 2.82813,-1.17383 1.06118,1.6e-4 2.07588,0.42338 2.82617,1.17383 l 1.41016,-1.41015 c -1.12476,-1.12501 -2.64551,-1.75562 -4.23633,-1.75586 z m 0,3.99218 c -1.09273,0 -2.00195,0.90923 -2.00195,2.00196 0,1.09272 0.90922,2 2.00195,2 1.09272,0 2,-0.90728 2,-2 0,-1.09273 -0.90728,-2.00196 -2,-2.00196 z m -11.92969,8.00196 h 23.99805 c 0.57131,0 0.99609,0.43456 0.99609,1.00586 0,0.57129 -0.42478,0.99609 -0.99609,0.99609 h -23.99805 c -0.5713,0 -1.0039,-0.4248 -1.0039,-0.99609 0,-0.5713 0.4326,-1.00586 1.0039,-1.00586 z" color="#000" font-family="sans-serif" font-weight="400" overflow="visible" style="line-height:normal;font-variant-ligatures:normal;font-variant-position:normal;font-variant-caps:normal;font-variant-numeric:normal;font-variant-alternates:normal;font-variant-east-asian:normal;font-feature-settings:normal;font-variation-settings:normal;text-indent:0;text-align:start;text-decoration-line:none;text-decoration-style:solid;text-decoration-color:#000;text-transform:none;text-orientation:mixed;shape-padding:0;shape-margin:0;inline-size:0;isolation:auto;mix-blend-mode:normal" transform="translate(-93.26 -67.733)scale(.26458)"></path>
</svg>